  0
SECTION
  2
HEADER
  9
$EXTMIN
 10
-0.177000
 20
-0.429000
  9
$EXTMAX
 10
0.705000
 20
0.805000
  9
$LIMMIN
 10
-0.177000
 20
-0.429000
  9
$LIMMAX
 10
0.705000
 20
0.805000
  9
$FILLMODE
 70
  1
  0
ENDSEC
  0
SECTION
  2
TABLES
  0
TABLE
  2
LTYPE
 70
  1
  0
LTYPE
  2
CONTINUOUS
 70
 64
  3
Solid line
 72
 65
 73
  0
 40
0.0
  0
ENDTAB
  0
TABLE
  2
LAYER
 70
 1
  0
LAYER
  2
0
 70
  0
 62
7
  6
CONTINUOUS
  0
LAYER
  2
gg1
 70
  0
 62
1
  6
CONTINUOUS
  0
ENDTAB
  0
TABLE
  2
STYLE
 70
  1
  0
STYLE
  2
STANDARD
 70
  0
 40
0.0
 41
1.0
 50
0.0
 71
  0
 42
0.2
  3
txt
  4

  0
ENDTAB
  0
ENDSEC
  0
SECTION
  2
BLOCKS
  0
BLOCK
  8
0
  2
D10
 70
64
 10
0.0
 20
0.0
  3
D10
  0
CIRCLE
  8
0
 10
0.000000
 20
0.000000
 40
0.005000
 0
ENDBLK
  8
0
  0
BLOCK
  8
0
  2
D11
 70
64
 10
0.0
 20
0.0
  3
D11
  0
CIRCLE
  8
0
 10
0.000000
 20
0.000000
 40
0.002500
 0
ENDBLK
  8
0
  0
BLOCK
  8
0
  2
D12
 70
64
 10
0.0
 20
0.0
  3
D12
  0
CIRCLE
  8
0
 10
0.000000
 20
0.000000
 40
0.003000
 0
ENDBLK
  8
0
  0
ENDSEC
  0
SECTION
  2
ENTITIES
  0
POLYLINE
  8
gg1
 62
1
 40
0.000000
 41
0.000000
 66
  1
  0
VERTEX
  8
gg1
 10
-0.160000
 20
0.000000
  0
VERTEX
  8
gg1
 10
-0.010000
 20
0.000000
  0
SEQEND
  8
gg1
  0
POLYLINE
  8
gg1
 62
1
 40
0.000000
 41
0.000000
 66
  1
  0
VERTEX
  8
gg1
 10
-0.160000
 20
0.800000
  0
VERTEX
  8
gg1
 10
-0.010000
 20
0.800000
  0
SEQEND
  8
gg1
  0
POLYLINE
  8
gg1
 62
1
 40
0.000000
 41
0.000000
 66
  1
  0
VERTEX
  8
gg1
 10
-0.150000
 20
0.000000
  0
VERTEX
  8
gg1
 10
-0.150000
 20
0.213000
  0
SEQEND
  8
gg1
  0
POLYLINE
  8
gg1
 62
1
 40
0.000000
 41
0.000000
 66
  1
  0
VERTEX
  8
gg1
 10
-0.150000
 20
0.554900
  0
VERTEX
  8
gg1
 10
-0.150000
 20
0.800000
  0
SEQEND
  8
gg1
  0
POLYLINE
  8
gg1
 62
1
 40
0.000000
 41
0.000000
 66
  1
  0
VERTEX
  8
gg1
 10
-0.150000
 20
0.000000
  0
VERTEX
  8
gg1
 10
-0.130000
 20
0.060000
  0
SEQEND
  8
gg1
  0
POLYLINE
  8
gg1
 62
1
 40
0.000000
 41
0.000000
 66
  1
  0
VERTEX
  8
gg1
 10
-0.170000
 20
0.060000
  0
VERTEX
  8
gg1
 10
-0.150000
 20
0.000000
  0
SEQEND
  8
gg1
  0
POLYLINE
  8
gg1
 62
1
 40
0.000000
 41
0.000000
 66
  1
  0
VERTEX
  8
gg1
 10
-0.170000
 20
0.740000
  0
VERTEX
  8
gg1
 10
-0.150000
 20
0.800000
  0
VERTEX
  8
gg1
 10
-0.130000
 20
0.740000
  0
SEQEND
  8
gg1
  0
POLYLINE
  8
gg1
 62
1
 40
0.000000
 41
0.000000
 66
  1
  0
VERTEX
  8
gg1
 10
0.700000
 20
-0.400000
  0
VERTEX
  8
gg1
 10
0.700000
 20
-0.010000
  0
SEQEND
  8
gg1
  0
POLYLINE
  8
gg1
 62
1
 40
0.000000
 41
0.000000
 66
  1
  0
VERTEX
  8
gg1
 10
0.000000
 20
-0.400000
  0
VERTEX
  8
gg1
 10
0.000000
 20
-0.010000
  0
SEQEND
  8
gg1
  0
POLYLINE
  8
gg1
 62
1
 40
0.000000
 41
0.000000
 66
  1
  0
VERTEX
  8
gg1
 10
0.504900
 20
-0.390000
  0
VERTEX
  8
gg1
 10
0.700000
 20
-0.390000
  0
SEQEND
  8
gg1
  0
POLYLINE
  8
gg1
 62
1
 40
0.000000
 41
0.000000
 66
  1
  0
VERTEX
  8
gg1
 10
0.000000
 20
-0.390000
  0
VERTEX
  8
gg1
 10
0.163000
 20
-0.390000
  0
SEQEND
  8
gg1
  0
POLYLINE
  8
gg1
 62
1
 40
0.000000
 41
0.000000
 66
  1
  0
VERTEX
  8
gg1
 10
0.640000
 20
-0.370000
  0
VERTEX
  8
gg1
 10
0.700000
 20
-0.390000
  0
SEQEND
  8
gg1
  0
POLYLINE
  8
gg1
 62
1
 40
0.000000
 41
0.000000
 66
  1
  0
VERTEX
  8
gg1
 10
0.640000
 20
-0.410000
  0
VERTEX
  8
gg1
 10
0.700000
 20
-0.390000
  0
SEQEND
  8
gg1
  0
POLYLINE
  8
gg1
 62
1
 40
0.000000
 41
0.000000
 66
  1
  0
VERTEX
  8
gg1
 10
0.000000
 20
-0.390000
  0
VERTEX
  8
gg1
 10
0.060000
 20
-0.410000
  0
SEQEND
  8
gg1
  0
POLYLINE
  8
gg1
 62
1
 40
0.000000
 41
0.000000
 66
  1
  0
VERTEX
  8
gg1
 10
0.000000
 20
-0.390000
  0
VERTEX
  8
gg1
 10
0.060000
 20
-0.370000
  0
SEQEND
  8
gg1
  0
POLYLINE
  8
gg1
 62
1
 40
0.000000
 41
0.000000
 66
  1
  0
VERTEX
  8
gg1
 10
0.000000
 20
0.800000
  0
VERTEX
  8
gg1
 10
0.700000
 20
0.800000
  0
SEQEND
  8
gg1
  0
POLYLINE
  8
gg1
 62
1
 40
0.000000
 41
0.000000
 66
  1
  0
VERTEX
  8
gg1
 10
0.700000
 20
0.000000
  0
VERTEX
  8
gg1
 10
0.700000
 20
0.800000
  0
SEQEND
  8
gg1
  0
POLYLINE
  8
gg1
 62
1
 40
0.000000
 41
0.000000
 66
  1
  0
VERTEX
  8
gg1
 10
0.000000
 20
0.000000
  0
VERTEX
  8
gg1
 10
0.700000
 20
0.000000
  0
SEQEND
  8
gg1
  0
POLYLINE
  8
gg1
 62
1
 40
0.000000
 41
0.000000
 66
  1
  0
VERTEX
  8
gg1
 10
0.000000
 20
0.000000
  0
VERTEX
  8
gg1
 10
0.000000
 20
0.800000
  0
SEQEND
  8
gg1
  0
POLYLINE
  8
gg1
 62
1
 40
0.000000
 41
0.000000
 66
  1
  0
VERTEX
  8
gg1
 10
0.405000
 20
0.135000
  0
VERTEX
  8
gg1
 10
0.425000
 20
0.135000
  0
SEQEND
  8
gg1
  0
POLYLINE
  8
gg1
 62
1
 40
0.000000
 41
0.000000
 66
  1
  0
VERTEX
  8
gg1
 10
0.415000
 20
0.125000
  0
VERTEX
  8
gg1
 10
0.415000
 20
0.145000
  0
SEQEND
  8
gg1
  0
POLYLINE
  8
gg1
 62
1
 40
0.000000
 41
0.000000
 66
  1
  0
VERTEX
  8
gg1
 10
0.290000
 20
0.285000
  0
VERTEX
  8
gg1
 10
0.310000
 20
0.285000
  0
SEQEND
  8
gg1
  0
POLYLINE
  8
gg1
 62
1
 40
0.000000
 41
0.000000
 66
  1
  0
VERTEX
  8
gg1
 10
0.300000
 20
0.275000
  0
VERTEX
  8
gg1
 10
0.300000
 20
0.295000
  0
SEQEND
  8
gg1
  0
POLYLINE
  8
gg1
 62
1
 40
0.000000
 41
0.000000
 66
  1
  0
VERTEX
  8
gg1
 10
0.605000
 20
0.050000
  0
VERTEX
  8
gg1
 10
0.645000
 20
0.050000
  0
SEQEND
  8
gg1
  0
POLYLINE
  8
gg1
 62
1
 40
0.000000
 41
0.000000
 66
  1
  0
VERTEX
  8
gg1
 10
0.625000
 20
0.030000
  0
VERTEX
  8
gg1
 10
0.625000
 20
0.070000
  0
SEQEND
  8
gg1
  0
POLYLINE
  8
gg1
 62
1
 40
0.000000
 41
0.000000
 66
  1
  0
VERTEX
  8
gg1
 10
0.505000
 20
0.050000
  0
VERTEX
  8
gg1
 10
0.545000
 20
0.050000
  0
SEQEND
  8
gg1
  0
POLYLINE
  8
gg1
 62
1
 40
0.000000
 41
0.000000
 66
  1
  0
VERTEX
  8
gg1
 10
0.525000
 20
0.030000
  0
VERTEX
  8
gg1
 10
0.525000
 20
0.070000
  0
SEQEND
  8
gg1
  0
POLYLINE
  8
gg1
 62
1
 40
0.000000
 41
0.000000
 66
  1
  0
VERTEX
  8
gg1
 10
0.405000
 20
0.050000
  0
VERTEX
  8
gg1
 10
0.445000
 20
0.050000
  0
SEQEND
  8
gg1
  0
POLYLINE
  8
gg1
 62
1
 40
0.000000
 41
0.000000
 66
  1
  0
VERTEX
  8
gg1
 10
0.425000
 20
0.030000
  0
VERTEX
  8
gg1
 10
0.425000
 20
0.070000
  0
SEQEND
  8
gg1
  0
POLYLINE
  8
gg1
 62
1
 40
0.000000
 41
0.000000
 66
  1
  0
VERTEX
  8
gg1
 10
0.305000
 20
0.050000
  0
VERTEX
  8
gg1
 10
0.345000
 20
0.050000
  0
SEQEND
  8
gg1
  0
POLYLINE
  8
gg1
 62
1
 40
0.000000
 41
0.000000
 66
  1
  0
VERTEX
  8
gg1
 10
0.325000
 20
0.030000
  0
VERTEX
  8
gg1
 10
0.325000
 20
0.070000
  0
SEQEND
  8
gg1
  0
POLYLINE
  8
gg1
 62
1
 40
0.000000
 41
0.000000
 66
  1
  0
VERTEX
  8
gg1
 10
0.205000
 20
0.050000
  0
VERTEX
  8
gg1
 10
0.245000
 20
0.050000
  0
SEQEND
  8
gg1
  0
POLYLINE
  8
gg1
 62
1
 40
0.000000
 41
0.000000
 66
  1
  0
VERTEX
  8
gg1
 10
0.225000
 20
0.030000
  0
VERTEX
  8
gg1
 10
0.225000
 20
0.070000
  0
SEQEND
  8
gg1
  0
POLYLINE
  8
gg1
 62
1
 40
0.000000
 41
0.000000
 66
  1
  0
VERTEX
  8
gg1
 10
0.572000
 20
0.715000
  0
VERTEX
  8
gg1
 10
0.658000
 20
0.715000
  0
SEQEND
  8
gg1
  0
POLYLINE
  8
gg1
 62
1
 40
0.000000
 41
0.000000
 66
  1
  0
VERTEX
  8
gg1
 10
0.615000
 20
0.672000
  0
VERTEX
  8
gg1
 10
0.615000
 20
0.758000
  0
SEQEND
  8
gg1
  0
POLYLINE
  8
gg1
 62
1
 40
0.000000
 41
0.000000
 66
  1
  0
VERTEX
  8
gg1
 10
0.042000
 20
0.085000
  0
VERTEX
  8
gg1
 10
0.128000
 20
0.085000
  0
SEQEND
  8
gg1
  0
POLYLINE
  8
gg1
 62
1
 40
0.000000
 41
0.000000
 66
  1
  0
VERTEX
  8
gg1
 10
0.085000
 20
0.042000
  0
VERTEX
  8
gg1
 10
0.085000
 20
0.128000
  0
SEQEND
  8
gg1
  0
POLYLINE
  8
gg1
 62
1
 40
0.000000
 41
0.000000
 66
  1
  0
VERTEX
  8
gg1
 10
0.602500
 20
0.158000
  0
VERTEX
  8
gg1
 10
0.617500
 20
0.158000
  0
SEQEND
  8
gg1
  0
POLYLINE
  8
gg1
 62
1
 40
0.000000
 41
0.000000
 66
  1
  0
VERTEX
  8
gg1
 10
0.610000
 20
0.150500
  0
VERTEX
  8
gg1
 10
0.610000
 20
0.165500
  0
SEQEND
  8
gg1
  0
POLYLINE
  8
gg1
 62
1
 40
0.000000
 41
0.000000
 66
  1
  0
VERTEX
  8
gg1
 10
0.652500
 20
0.213000
  0
VERTEX
  8
gg1
 10
0.667500
 20
0.213000
  0
SEQEND
  8
gg1
  0
POLYLINE
  8
gg1
 62
1
 40
0.000000
 41
0.000000
 66
  1
  0
VERTEX
  8
gg1
 10
0.660000
 20
0.205500
  0
VERTEX
  8
gg1
 10
0.660000
 20
0.220500
  0
SEQEND
  8
gg1
  0
POLYLINE
  8
gg1
 62
1
 40
0.000000
 41
0.000000
 66
  1
  0
VERTEX
  8
gg1
 10
0.552500
 20
0.290000
  0
VERTEX
  8
gg1
 10
0.567500
 20
0.290000
  0
SEQEND
  8
gg1
  0
POLYLINE
  8
gg1
 62
1
 40
0.000000
 41
0.000000
 66
  1
  0
VERTEX
  8
gg1
 10
0.560000
 20
0.282500
  0
VERTEX
  8
gg1
 10
0.560000
 20
0.297500
  0
SEQEND
  8
gg1
  0
POLYLINE
  8
gg1
 62
1
 40
0.000000
 41
0.000000
 66
  1
  0
VERTEX
  8
gg1
 10
0.512500
 20
0.290000
  0
VERTEX
  8
gg1
 10
0.527500
 20
0.290000
  0
SEQEND
  8
gg1
  0
POLYLINE
  8
gg1
 62
1
 40
0.000000
 41
0.000000
 66
  1
  0
VERTEX
  8
gg1
 10
0.520000
 20
0.282500
  0
VERTEX
  8
gg1
 10
0.520000
 20
0.297500
  0
SEQEND
  8
gg1
  0
POLYLINE
  8
gg1
 62
1
 40
0.000000
 41
0.000000
 66
  1
  0
VERTEX
  8
gg1
 10
0.477500
 20
0.520000
  0
VERTEX
  8
gg1
 10
0.492500
 20
0.520000
  0
SEQEND
  8
gg1
  0
POLYLINE
  8
gg1
 62
1
 40
0.000000
 41
0.000000
 66
  1
  0
VERTEX
  8
gg1
 10
0.485000
 20
0.512500
  0
VERTEX
  8
gg1
 10
0.485000
 20
0.527500
  0
SEQEND
  8
gg1
  0
POLYLINE
  8
gg1
 62
1
 40
0.000000
 41
0.000000
 66
  1
  0
VERTEX
  8
gg1
 10
0.262600
 20
0.459900
  0
VERTEX
  8
gg1
 10
0.277600
 20
0.459900
  0
SEQEND
  8
gg1
  0
POLYLINE
  8
gg1
 62
1
 40
0.000000
 41
0.000000
 66
  1
  0
VERTEX
  8
gg1
 10
0.270100
 20
0.452400
  0
VERTEX
  8
gg1
 10
0.270100
 20
0.467400
  0
SEQEND
  8
gg1
  0
POLYLINE
  8
gg1
 62
1
 40
0.000000
 41
0.000000
 66
  1
  0
VERTEX
  8
gg1
 10
0.302500
 20
0.510000
  0
VERTEX
  8
gg1
 10
0.317500
 20
0.510000
  0
SEQEND
  8
gg1
  0
POLYLINE
  8
gg1
 62
1
 40
0.000000
 41
0.000000
 66
  1
  0
VERTEX
  8
gg1
 10
0.310000
 20
0.502500
  0
VERTEX
  8
gg1
 10
0.310000
 20
0.517500
  0
SEQEND
  8
gg1
  0
POLYLINE
  8
gg1
 62
1
 40
0.000000
 41
0.000000
 66
  1
  0
VERTEX
  8
gg1
 10
0.097500
 20
0.510000
  0
VERTEX
  8
gg1
 10
0.112500
 20
0.510000
  0
SEQEND
  8
gg1
  0
POLYLINE
  8
gg1
 62
1
 40
0.000000
 41
0.000000
 66
  1
  0
VERTEX
  8
gg1
 10
0.105000
 20
0.502500
  0
VERTEX
  8
gg1
 10
0.105000
 20
0.517500
  0
SEQEND
  8
gg1
  0
POLYLINE
  8
gg1
 62
1
 40
0.000000
 41
0.000000
 66
  1
  0
VERTEX
  8
gg1
 10
0.472500
 20
0.365000
  0
VERTEX
  8
gg1
 10
0.487500
 20
0.365000
  0
SEQEND
  8
gg1
  0
POLYLINE
  8
gg1
 62
1
 40
0.000000
 41
0.000000
 66
  1
  0
VERTEX
  8
gg1
 10
0.480000
 20
0.357500
  0
VERTEX
  8
gg1
 10
0.480000
 20
0.372500
  0
SEQEND
  8
gg1
  0
POLYLINE
  8
gg1
 62
1
 40
0.000000
 41
0.000000
 66
  1
  0
VERTEX
  8
gg1
 10
0.032500
 20
0.535000
  0
VERTEX
  8
gg1
 10
0.047500
 20
0.535000
  0
SEQEND
  8
gg1
  0
POLYLINE
  8
gg1
 62
1
 40
0.000000
 41
0.000000
 66
  1
  0
VERTEX
  8
gg1
 10
0.040000
 20
0.527500
  0
VERTEX
  8
gg1
 10
0.040000
 20
0.542500
  0
SEQEND
  8
gg1
  0
POLYLINE
  8
gg1
 62
1
 40
0.000000
 41
0.000000
 66
  1
  0
VERTEX
  8
gg1
 10
0.137500
 20
0.545000
  0
VERTEX
  8
gg1
 10
0.152500
 20
0.545000
  0
SEQEND
  8
gg1
  0
POLYLINE
  8
gg1
 62
1
 40
0.000000
 41
0.000000
 66
  1
  0
VERTEX
  8
gg1
 10
0.145000
 20
0.537500
  0
VERTEX
  8
gg1
 10
0.145000
 20
0.552500
  0
SEQEND
  8
gg1
  0
POLYLINE
  8
gg1
 62
1
 40
0.000000
 41
0.000000
 66
  1
  0
VERTEX
  8
gg1
 10
0.372500
 20
0.710000
  0
VERTEX
  8
gg1
 10
0.387500
 20
0.710000
  0
SEQEND
  8
gg1
  0
POLYLINE
  8
gg1
 62
1
 40
0.000000
 41
0.000000
 66
  1
  0
VERTEX
  8
gg1
 10
0.380000
 20
0.702500
  0
VERTEX
  8
gg1
 10
0.380000
 20
0.717500
  0
SEQEND
  8
gg1
  0
POLYLINE
  8
gg1
 62
1
 40
0.000000
 41
0.000000
 66
  1
  0
VERTEX
  8
gg1
 10
0.292500
 20
0.250000
  0
VERTEX
  8
gg1
 10
0.307500
 20
0.250000
  0
SEQEND
  8
gg1
  0
POLYLINE
  8
gg1
 62
1
 40
0.000000
 41
0.000000
 66
  1
  0
VERTEX
  8
gg1
 10
0.300000
 20
0.242500
  0
VERTEX
  8
gg1
 10
0.300000
 20
0.257500
  0
SEQEND
  8
gg1
  0
POLYLINE
  8
gg1
 62
1
 40
0.000000
 41
0.000000
 66
  1
  0
VERTEX
  8
gg1
 10
0.062500
 20
0.395000
  0
VERTEX
  8
gg1
 10
0.077500
 20
0.395000
  0
SEQEND
  8
gg1
  0
POLYLINE
  8
gg1
 62
1
 40
0.000000
 41
0.000000
 66
  1
  0
VERTEX
  8
gg1
 10
0.070000
 20
0.387500
  0
VERTEX
  8
gg1
 10
0.070000
 20
0.402500
  0
SEQEND
  8
gg1
  0
POLYLINE
  8
gg1
 62
1
 40
0.000000
 41
0.000000
 66
  1
  0
VERTEX
  8
gg1
 10
0.032500
 20
0.385000
  0
VERTEX
  8
gg1
 10
0.047500
 20
0.385000
  0
SEQEND
  8
gg1
  0
POLYLINE
  8
gg1
 62
1
 40
0.000000
 41
0.000000
 66
  1
  0
VERTEX
  8
gg1
 10
0.040000
 20
0.377500
  0
VERTEX
  8
gg1
 10
0.040000
 20
0.392500
  0
SEQEND
  8
gg1
  0
POLYLINE
  8
gg1
 62
1
 40
0.000000
 41
0.000000
 66
  1
  0
VERTEX
  8
gg1
 10
0.432500
 20
0.295000
  0
VERTEX
  8
gg1
 10
0.447500
 20
0.295000
  0
SEQEND
  8
gg1
  0
POLYLINE
  8
gg1
 62
1
 40
0.000000
 41
0.000000
 66
  1
  0
VERTEX
  8
gg1
 10
0.440000
 20
0.287500
  0
VERTEX
  8
gg1
 10
0.440000
 20
0.302500
  0
SEQEND
  8
gg1
  0
POLYLINE
  8
gg1
 62
1
 40
0.000000
 41
0.000000
 66
  1
  0
VERTEX
  8
gg1
 10
0.652500
 20
0.275000
  0
VERTEX
  8
gg1
 10
0.667500
 20
0.275000
  0
SEQEND
  8
gg1
  0
POLYLINE
  8
gg1
 62
1
 40
0.000000
 41
0.000000
 66
  1
  0
VERTEX
  8
gg1
 10
0.660000
 20
0.267500
  0
VERTEX
  8
gg1
 10
0.660000
 20
0.282500
  0
SEQEND
  8
gg1
  0
POLYLINE
  8
gg1
 62
1
 40
0.000000
 41
0.000000
 66
  1
  0
VERTEX
  8
gg1
 10
0.386200
 20
0.431300
  0
VERTEX
  8
gg1
 10
0.401200
 20
0.431300
  0
SEQEND
  8
gg1
  0
POLYLINE
  8
gg1
 62
1
 40
0.000000
 41
0.000000
 66
  1
  0
VERTEX
  8
gg1
 10
0.393700
 20
0.423800
  0
VERTEX
  8
gg1
 10
0.393700
 20
0.438800
  0
SEQEND
  8
gg1
  0
POLYLINE
  8
gg1
 62
1
 40
0.000000
 41
0.000000
 66
  1
  0
VERTEX
  8
gg1
 10
0.386200
 20
0.468700
  0
VERTEX
  8
gg1
 10
0.401200
 20
0.468700
  0
SEQEND
  8
gg1
  0
POLYLINE
  8
gg1
 62
1
 40
0.000000
 41
0.000000
 66
  1
  0
VERTEX
  8
gg1
 10
0.393700
 20
0.461200
  0
VERTEX
  8
gg1
 10
0.393700
 20
0.476200
  0
SEQEND
  8
gg1
  0
POLYLINE
  8
gg1
 62
1
 40
0.000000
 41
0.000000
 66
  1
  0
VERTEX
  8
gg1
 10
0.172500
 20
0.545000
  0
VERTEX
  8
gg1
 10
0.187500
 20
0.545000
  0
SEQEND
  8
gg1
  0
POLYLINE
  8
gg1
 62
1
 40
0.000000
 41
0.000000
 66
  1
  0
VERTEX
  8
gg1
 10
0.180000
 20
0.537500
  0
VERTEX
  8
gg1
 10
0.180000
 20
0.552500
  0
SEQEND
  8
gg1
  0
POLYLINE
  8
gg1
 62
1
 40
0.000000
 41
0.000000
 66
  1
  0
VERTEX
  8
gg1
 10
0.207500
 20
0.545000
  0
VERTEX
  8
gg1
 10
0.222500
 20
0.545000
  0
SEQEND
  8
gg1
  0
POLYLINE
  8
gg1
 62
1
 40
0.000000
 41
0.000000
 66
  1
  0
VERTEX
  8
gg1
 10
0.215000
 20
0.537500
  0
VERTEX
  8
gg1
 10
0.215000
 20
0.552500
  0
SEQEND
  8
gg1
  0
POLYLINE
  8
gg1
 62
1
 40
0.000000
 41
0.000000
 66
  1
  0
VERTEX
  8
gg1
 10
0.467500
 20
0.295000
  0
VERTEX
  8
gg1
 10
0.482500
 20
0.295000
  0
SEQEND
  8
gg1
  0
POLYLINE
  8
gg1
 62
1
 40
0.000000
 41
0.000000
 66
  1
  0
VERTEX
  8
gg1
 10
0.475000
 20
0.287500
  0
VERTEX
  8
gg1
 10
0.475000
 20
0.302500
  0
SEQEND
  8
gg1
  0
POLYLINE
  8
gg1
 62
1
 40
0.000000
 41
0.000000
 66
  1
  0
VERTEX
  8
gg1
 10
0.457500
 20
0.400000
  0
VERTEX
  8
gg1
 10
0.472500
 20
0.400000
  0
SEQEND
  8
gg1
  0
POLYLINE
  8
gg1
 62
1
 40
0.000000
 41
0.000000
 66
  1
  0
VERTEX
  8
gg1
 10
0.465000
 20
0.392500
  0
VERTEX
  8
gg1
 10
0.465000
 20
0.407500
  0
SEQEND
  8
gg1
  0
POLYLINE
  8
gg1
 62
1
 40
0.000000
 41
0.000000
 66
  1
  0
VERTEX
  8
gg1
 10
0.437500
 20
0.330000
  0
VERTEX
  8
gg1
 10
0.452500
 20
0.330000
  0
SEQEND
  8
gg1
  0
POLYLINE
  8
gg1
 62
1
 40
0.000000
 41
0.000000
 66
  1
  0
VERTEX
  8
gg1
 10
0.445000
 20
0.322500
  0
VERTEX
  8
gg1
 10
0.445000
 20
0.337500
  0
SEQEND
  8
gg1
  0
POLYLINE
  8
gg1
 62
1
 40
0.000000
 41
0.000000
 66
  1
  0
VERTEX
  8
gg1
 10
0.437500
 20
0.755000
  0
VERTEX
  8
gg1
 10
0.452500
 20
0.755000
  0
SEQEND
  8
gg1
  0
POLYLINE
  8
gg1
 62
1
 40
0.000000
 41
0.000000
 66
  1
  0
VERTEX
  8
gg1
 10
0.445000
 20
0.747500
  0
VERTEX
  8
gg1
 10
0.445000
 20
0.762500
  0
SEQEND
  8
gg1
  0
POLYLINE
  8
gg1
 62
1
 40
0.000000
 41
0.000000
 66
  1
  0
VERTEX
  8
gg1
 10
0.062500
 20
0.455000
  0
VERTEX
  8
gg1
 10
0.077500
 20
0.455000
  0
SEQEND
  8
gg1
  0
POLYLINE
  8
gg1
 62
1
 40
0.000000
 41
0.000000
 66
  1
  0
VERTEX
  8
gg1
 10
0.070000
 20
0.447500
  0
VERTEX
  8
gg1
 10
0.070000
 20
0.462500
  0
SEQEND
  8
gg1
  0
POLYLINE
  8
gg1
 62
1
 40
0.000000
 41
0.000000
 66
  1
  0
VERTEX
  8
gg1
 10
0.332500
 20
0.710000
  0
VERTEX
  8
gg1
 10
0.347500
 20
0.710000
  0
SEQEND
  8
gg1
  0
POLYLINE
  8
gg1
 62
1
 40
0.000000
 41
0.000000
 66
  1
  0
VERTEX
  8
gg1
 10
0.340000
 20
0.702500
  0
VERTEX
  8
gg1
 10
0.340000
 20
0.717500
  0
SEQEND
  8
gg1
  0
POLYLINE
  8
gg1
 62
1
 40
0.000000
 41
0.000000
 66
  1
  0
VERTEX
  8
gg1
 10
0.397500
 20
0.325000
  0
VERTEX
  8
gg1
 10
0.412500
 20
0.325000
  0
SEQEND
  8
gg1
  0
POLYLINE
  8
gg1
 62
1
 40
0.000000
 41
0.000000
 66
  1
  0
VERTEX
  8
gg1
 10
0.405000
 20
0.317500
  0
VERTEX
  8
gg1
 10
0.405000
 20
0.332500
  0
SEQEND
  8
gg1
  0
POLYLINE
  8
gg1
 62
1
 40
0.000000
 41
0.000000
 66
  1
  0
VERTEX
  8
gg1
 10
0.337500
 20
0.325000
  0
VERTEX
  8
gg1
 10
0.352500
 20
0.325000
  0
SEQEND
  8
gg1
  0
POLYLINE
  8
gg1
 62
1
 40
0.000000
 41
0.000000
 66
  1
  0
VERTEX
  8
gg1
 10
0.345000
 20
0.317500
  0
VERTEX
  8
gg1
 10
0.345000
 20
0.332500
  0
SEQEND
  8
gg1
  0
POLYLINE
  8
gg1
 62
1
 40
0.000000
 41
0.000000
 66
  1
  0
VERTEX
  8
gg1
 10
0.032500
 20
0.625000
  0
VERTEX
  8
gg1
 10
0.047500
 20
0.625000
  0
SEQEND
  8
gg1
  0
POLYLINE
  8
gg1
 62
1
 40
0.000000
 41
0.000000
 66
  1
  0
VERTEX
  8
gg1
 10
0.040000
 20
0.617500
  0
VERTEX
  8
gg1
 10
0.040000
 20
0.632500
  0
SEQEND
  8
gg1
  0
POLYLINE
  8
gg1
 62
1
 40
0.000000
 41
0.000000
 66
  1
  0
VERTEX
  8
gg1
 10
0.472500
 20
0.330000
  0
VERTEX
  8
gg1
 10
0.487500
 20
0.330000
  0
SEQEND
  8
gg1
  0
POLYLINE
  8
gg1
 62
1
 40
0.000000
 41
0.000000
 66
  1
  0
VERTEX
  8
gg1
 10
0.480000
 20
0.322500
  0
VERTEX
  8
gg1
 10
0.480000
 20
0.337500
  0
SEQEND
  8
gg1
  0
POLYLINE
  8
gg1
 62
1
 40
0.000000
 41
0.000000
 66
  1
  0
VERTEX
  8
gg1
 10
0.652500
 20
0.305000
  0
VERTEX
  8
gg1
 10
0.667500
 20
0.305000
  0
SEQEND
  8
gg1
  0
POLYLINE
  8
gg1
 62
1
 40
0.000000
 41
0.000000
 66
  1
  0
VERTEX
  8
gg1
 10
0.660000
 20
0.297500
  0
VERTEX
  8
gg1
 10
0.660000
 20
0.312500
  0
SEQEND
  8
gg1
  0
POLYLINE
  8
gg1
 62
1
 40
0.000000
 41
0.000000
 66
  1
  0
VERTEX
  8
gg1
 10
0.647500
 20
0.610000
  0
VERTEX
  8
gg1
 10
0.662500
 20
0.610000
  0
SEQEND
  8
gg1
  0
POLYLINE
  8
gg1
 62
1
 40
0.000000
 41
0.000000
 66
  1
  0
VERTEX
  8
gg1
 10
0.655000
 20
0.602500
  0
VERTEX
  8
gg1
 10
0.655000
 20
0.617500
  0
SEQEND
  8
gg1
  0
POLYLINE
  8
gg1
 62
1
 40
0.000000
 41
0.000000
 66
  1
  0
VERTEX
  8
gg1
 10
0.348800
 20
0.468700
  0
VERTEX
  8
gg1
 10
0.363800
 20
0.468700
  0
SEQEND
  8
gg1
  0
POLYLINE
  8
gg1
 62
1
 40
0.000000
 41
0.000000
 66
  1
  0
VERTEX
  8
gg1
 10
0.356300
 20
0.461200
  0
VERTEX
  8
gg1
 10
0.356300
 20
0.476200
  0
SEQEND
  8
gg1
  0
POLYLINE
  8
gg1
 62
1
 40
0.000000
 41
0.000000
 66
  1
  0
VERTEX
  8
gg1
 10
0.437500
 20
0.365000
  0
VERTEX
  8
gg1
 10
0.452500
 20
0.365000
  0
SEQEND
  8
gg1
  0
POLYLINE
  8
gg1
 62
1
 40
0.000000
 41
0.000000
 66
  1
  0
VERTEX
  8
gg1
 10
0.445000
 20
0.357500
  0
VERTEX
  8
gg1
 10
0.445000
 20
0.372500
  0
SEQEND
  8
gg1
  0
POLYLINE
  8
gg1
 62
1
 40
0.000000
 41
0.000000
 66
  1
  0
VERTEX
  8
gg1
 10
0.348800
 20
0.431300
  0
VERTEX
  8
gg1
 10
0.363800
 20
0.431300
  0
SEQEND
  8
gg1
  0
POLYLINE
  8
gg1
 62
1
 40
0.000000
 41
0.000000
 66
  1
  0
VERTEX
  8
gg1
 10
0.356300
 20
0.423800
  0
VERTEX
  8
gg1
 10
0.356300
 20
0.438800
  0
SEQEND
  8
gg1
  0
POLYLINE
  8
gg1
 62
1
 40
0.000000
 41
0.000000
 66
  1
  0
VERTEX
  8
gg1
 10
0.267500
 20
0.420000
  0
VERTEX
  8
gg1
 10
0.282500
 20
0.420000
  0
SEQEND
  8
gg1
  0
POLYLINE
  8
gg1
 62
1
 40
0.000000
 41
0.000000
 66
  1
  0
VERTEX
  8
gg1
 10
0.275000
 20
0.412500
  0
VERTEX
  8
gg1
 10
0.275000
 20
0.427500
  0
SEQEND
  8
gg1
  0
POLYLINE
  8
gg1
 62
1
 40
0.000000
 41
0.000000
 66
  1
  0
VERTEX
  8
gg1
 10
0.062500
 20
0.249000
  0
VERTEX
  8
gg1
 10
0.077500
 20
0.249000
  0
SEQEND
  8
gg1
  0
POLYLINE
  8
gg1
 62
1
 40
0.000000
 41
0.000000
 66
  1
  0
VERTEX
  8
gg1
 10
0.070000
 20
0.241500
  0
VERTEX
  8
gg1
 10
0.070000
 20
0.256500
  0
SEQEND
  8
gg1
  0
POLYLINE
  8
gg1
 62
1
 40
0.000000
 41
0.000000
 66
  1
  0
VERTEX
  8
gg1
 10
0.242500
 20
0.495000
  0
VERTEX
  8
gg1
 10
0.257500
 20
0.495000
  0
SEQEND
  8
gg1
  0
POLYLINE
  8
gg1
 62
1
 40
0.000000
 41
0.000000
 66
  1
  0
VERTEX
  8
gg1
 10
0.250000
 20
0.487500
  0
VERTEX
  8
gg1
 10
0.250000
 20
0.502500
  0
SEQEND
  8
gg1
  0
POLYLINE
  8
gg1
 62
1
 40
0.000000
 41
0.000000
 66
  1
  0
VERTEX
  8
gg1
 10
0.257500
 20
0.280000
  0
VERTEX
  8
gg1
 10
0.272500
 20
0.280000
  0
SEQEND
  8
gg1
  0
POLYLINE
  8
gg1
 62
1
 40
0.000000
 41
0.000000
 66
  1
  0
VERTEX
  8
gg1
 10
0.265000
 20
0.272500
  0
VERTEX
  8
gg1
 10
0.265000
 20
0.287500
  0
SEQEND
  8
gg1
  0
POLYLINE
  8
gg1
 62
1
 40
0.000000
 41
0.000000
 66
  1
  0
VERTEX
  8
gg1
 10
0.152500
 20
0.570000
  0
VERTEX
  8
gg1
 10
0.167500
 20
0.570000
  0
SEQEND
  8
gg1
  0
POLYLINE
  8
gg1
 62
1
 40
0.000000
 41
0.000000
 66
  1
  0
VERTEX
  8
gg1
 10
0.160000
 20
0.562500
  0
VERTEX
  8
gg1
 10
0.160000
 20
0.577500
  0
SEQEND
  8
gg1
  0
POLYLINE
  8
gg1
 62
1
 40
0.000000
 41
0.000000
 66
  1
  0
VERTEX
  8
gg1
 10
0.192500
 20
0.570000
  0
VERTEX
  8
gg1
 10
0.207500
 20
0.570000
  0
SEQEND
  8
gg1
  0
POLYLINE
  8
gg1
 62
1
 40
0.000000
 41
0.000000
 66
  1
  0
VERTEX
  8
gg1
 10
0.200000
 20
0.562500
  0
VERTEX
  8
gg1
 10
0.200000
 20
0.577500
  0
SEQEND
  8
gg1
  0
POLYLINE
  8
gg1
 62
1
 40
0.000000
 41
0.000000
 66
  1
  0
VERTEX
  8
gg1
 10
0.472500
 20
0.430000
  0
VERTEX
  8
gg1
 10
0.487500
 20
0.430000
  0
SEQEND
  8
gg1
  0
POLYLINE
  8
gg1
 62
1
 40
0.000000
 41
0.000000
 66
  1
  0
VERTEX
  8
gg1
 10
0.480000
 20
0.422500
  0
VERTEX
  8
gg1
 10
0.480000
 20
0.437500
  0
SEQEND
  8
gg1
  0
POLYLINE
  8
gg1
 62
1
 40
0.000000
 41
0.000000
 66
  1
  0
VERTEX
  8
gg1
 10
0.602500
 20
0.213000
  0
VERTEX
  8
gg1
 10
0.617500
 20
0.213000
  0
SEQEND
  8
gg1
  0
POLYLINE
  8
gg1
 62
1
 40
0.000000
 41
0.000000
 66
  1
  0
VERTEX
  8
gg1
 10
0.610000
 20
0.205500
  0
VERTEX
  8
gg1
 10
0.610000
 20
0.220500
  0
SEQEND
  8
gg1
  0
POLYLINE
  8
gg1
 62
1
 40
0.000000
 41
0.000000
 66
  1
  0
VERTEX
  8
gg1
 10
0.619500
 20
0.369000
  0
VERTEX
  8
gg1
 10
0.634500
 20
0.369000
  0
SEQEND
  8
gg1
  0
POLYLINE
  8
gg1
 62
1
 40
0.000000
 41
0.000000
 66
  1
  0
VERTEX
  8
gg1
 10
0.627000
 20
0.361500
  0
VERTEX
  8
gg1
 10
0.627000
 20
0.376500
  0
SEQEND
  8
gg1
  0
POLYLINE
  8
gg1
 62
1
 40
0.000000
 41
0.000000
 66
  1
  0
VERTEX
  8
gg1
 10
0.032500
 20
0.470000
  0
VERTEX
  8
gg1
 10
0.047500
 20
0.470000
  0
SEQEND
  8
gg1
  0
POLYLINE
  8
gg1
 62
1
 40
0.000000
 41
0.000000
 66
  1
  0
VERTEX
  8
gg1
 10
0.040000
 20
0.462500
  0
VERTEX
  8
gg1
 10
0.040000
 20
0.477500
  0
SEQEND
  8
gg1
  0
POLYLINE
  8
gg1
 62
1
 40
0.000000
 41
0.000000
 66
  1
  0
VERTEX
  8
gg1
 10
0.257500
 20
0.250000
  0
VERTEX
  8
gg1
 10
0.272500
 20
0.250000
  0
SEQEND
  8
gg1
  0
POLYLINE
  8
gg1
 62
1
 40
0.000000
 41
0.000000
 66
  1
  0
VERTEX
  8
gg1
 10
0.265000
 20
0.242500
  0
VERTEX
  8
gg1
 10
0.265000
 20
0.257500
  0
SEQEND
  8
gg1
  0
POLYLINE
  8
gg1
 62
1
 40
0.000000
 41
0.000000
 66
  1
  0
VERTEX
  8
gg1
 10
0.092500
 20
0.380000
  0
VERTEX
  8
gg1
 10
0.107500
 20
0.380000
  0
SEQEND
  8
gg1
  0
POLYLINE
  8
gg1
 62
1
 40
0.000000
 41
0.000000
 66
  1
  0
VERTEX
  8
gg1
 10
0.100000
 20
0.372500
  0
VERTEX
  8
gg1
 10
0.100000
 20
0.387500
  0
SEQEND
  8
gg1
  0
POLYLINE
  8
gg1
 62
1
 40
0.000000
 41
0.000000
 66
  1
  0
VERTEX
  8
gg1
 10
0.057500
 20
0.500000
  0
VERTEX
  8
gg1
 10
0.072500
 20
0.500000
  0
SEQEND
  8
gg1
  0
POLYLINE
  8
gg1
 62
1
 40
0.000000
 41
0.000000
 66
  1
  0
VERTEX
  8
gg1
 10
0.065000
 20
0.492500
  0
VERTEX
  8
gg1
 10
0.065000
 20
0.507500
  0
SEQEND
  8
gg1
  0
POLYLINE
  8
gg1
 62
1
 40
0.000000
 41
0.000000
 66
  1
  0
VERTEX
  8
gg1
 10
0.032500
 20
0.580000
  0
VERTEX
  8
gg1
 10
0.047500
 20
0.580000
  0
SEQEND
  8
gg1
  0
POLYLINE
  8
gg1
 62
1
 40
0.000000
 41
0.000000
 66
  1
  0
VERTEX
  8
gg1
 10
0.040000
 20
0.572500
  0
VERTEX
  8
gg1
 10
0.040000
 20
0.587500
  0
SEQEND
  8
gg1
  0
POLYLINE
  8
gg1
 62
1
 40
0.000000
 41
0.000000
 66
  1
  0
VERTEX
  8
gg1
 10
0.032500
 20
0.670000
  0
VERTEX
  8
gg1
 10
0.047500
 20
0.670000
  0
SEQEND
  8
gg1
  0
POLYLINE
  8
gg1
 62
1
 40
0.000000
 41
0.000000
 66
  1
  0
VERTEX
  8
gg1
 10
0.040000
 20
0.662500
  0
VERTEX
  8
gg1
 10
0.040000
 20
0.677500
  0
SEQEND
  8
gg1
  0
POLYLINE
  8
gg1
 62
1
 40
0.000000
 41
0.000000
 66
  1
  0
VERTEX
  8
gg1
 10
0.032500
 20
0.760000
  0
VERTEX
  8
gg1
 10
0.047500
 20
0.760000
  0
SEQEND
  8
gg1
  0
POLYLINE
  8
gg1
 62
1
 40
0.000000
 41
0.000000
 66
  1
  0
VERTEX
  8
gg1
 10
0.040000
 20
0.752500
  0
VERTEX
  8
gg1
 10
0.040000
 20
0.767500
  0
SEQEND
  8
gg1
  0
POLYLINE
  8
gg1
 62
1
 40
0.000000
 41
0.000000
 66
  1
  0
VERTEX
  8
gg1
 10
0.032500
 20
0.715000
  0
VERTEX
  8
gg1
 10
0.047500
 20
0.715000
  0
SEQEND
  8
gg1
  0
POLYLINE
  8
gg1
 62
1
 40
0.000000
 41
0.000000
 66
  1
  0
VERTEX
  8
gg1
 10
0.040000
 20
0.707500
  0
VERTEX
  8
gg1
 10
0.040000
 20
0.722500
  0
SEQEND
  8
gg1
  0
POLYLINE
  8
gg1
 62
1
 40
0.000000
 41
0.000000
 66
  1
  0
VERTEX
  8
gg1
 10
0.267500
 20
0.310000
  0
VERTEX
  8
gg1
 10
0.282500
 20
0.310000
  0
SEQEND
  8
gg1
  0
POLYLINE
  8
gg1
 62
1
 40
0.000000
 41
0.000000
 66
  1
  0
VERTEX
  8
gg1
 10
0.275000
 20
0.302500
  0
VERTEX
  8
gg1
 10
0.275000
 20
0.317500
  0
SEQEND
  8
gg1
  0
POLYLINE
  8
gg1
 62
1
 40
0.000000
 41
0.000000
 66
  1
  0
VERTEX
  8
gg1
 10
0.387500
 20
0.755000
  0
VERTEX
  8
gg1
 10
0.402500
 20
0.755000
  0
SEQEND
  8
gg1
  0
POLYLINE
  8
gg1
 62
1
 40
0.000000
 41
0.000000
 66
  1
  0
VERTEX
  8
gg1
 10
0.395000
 20
0.747500
  0
VERTEX
  8
gg1
 10
0.395000
 20
0.762500
  0
SEQEND
  8
gg1
  0
POLYLINE
  8
gg1
 62
1
 40
0.000000
 41
0.000000
 66
  1
  0
VERTEX
  8
gg1
 10
0.342500
 20
0.755000
  0
VERTEX
  8
gg1
 10
0.357500
 20
0.755000
  0
SEQEND
  8
gg1
  0
POLYLINE
  8
gg1
 62
1
 40
0.000000
 41
0.000000
 66
  1
  0
VERTEX
  8
gg1
 10
0.350000
 20
0.747500
  0
VERTEX
  8
gg1
 10
0.350000
 20
0.762500
  0
SEQEND
  8
gg1
  0
POLYLINE
  8
gg1
 62
1
 40
0.000000
 41
0.000000
 66
  1
  0
VERTEX
  8
gg1
 10
0.417500
 20
0.725000
  0
VERTEX
  8
gg1
 10
0.432500
 20
0.725000
  0
SEQEND
  8
gg1
  0
POLYLINE
  8
gg1
 62
1
 40
0.000000
 41
0.000000
 66
  1
  0
VERTEX
  8
gg1
 10
0.425000
 20
0.717500
  0
VERTEX
  8
gg1
 10
0.425000
 20
0.732500
  0
SEQEND
  8
gg1
  0
POLYLINE
  8
gg1
 62
1
 40
0.000000
 41
0.000000
 66
  1
  0
VERTEX
  8
gg1
 10
0.122500
 20
0.325000
  0
VERTEX
  8
gg1
 10
0.137500
 20
0.325000
  0
SEQEND
  8
gg1
  0
POLYLINE
  8
gg1
 62
1
 40
0.000000
 41
0.000000
 66
  1
  0
VERTEX
  8
gg1
 10
0.130000
 20
0.317500
  0
VERTEX
  8
gg1
 10
0.130000
 20
0.332500
  0
SEQEND
  8
gg1
  0
POLYLINE
  8
gg1
 62
1
 40
0.000000
 41
0.000000
 66
  1
  0
VERTEX
  8
gg1
 10
0.102500
 20
0.195000
  0
VERTEX
  8
gg1
 10
0.117500
 20
0.195000
  0
SEQEND
  8
gg1
  0
POLYLINE
  8
gg1
 62
1
 40
0.000000
 41
0.000000
 66
  1
  0
VERTEX
  8
gg1
 10
0.110000
 20
0.187500
  0
VERTEX
  8
gg1
 10
0.110000
 20
0.202500
  0
SEQEND
  8
gg1
  0
POLYLINE
  8
gg1
 62
1
 40
0.000000
 41
0.000000
 66
  1
  0
VERTEX
  8
gg1
 10
0.102500
 20
0.225000
  0
VERTEX
  8
gg1
 10
0.117500
 20
0.225000
  0
SEQEND
  8
gg1
  0
POLYLINE
  8
gg1
 62
1
 40
0.000000
 41
0.000000
 66
  1
  0
VERTEX
  8
gg1
 10
0.110000
 20
0.217500
  0
VERTEX
  8
gg1
 10
0.110000
 20
0.232500
  0
SEQEND
  8
gg1
  0
POLYLINE
  8
gg1
 62
1
 40
0.000000
 41
0.000000
 66
  1
  0
VERTEX
  8
gg1
 10
-0.164000
 20
0.229000
  0
VERTEX
  8
gg1
 10
-0.174000
 20
0.239000
  0
VERTEX
  8
gg1
 10
-0.174000
 20
0.259000
  0
VERTEX
  8
gg1
 10
-0.164000
 20
0.269000
  0
VERTEX
  8
gg1
 10
-0.154000
 20
0.269000
  0
VERTEX
  8
gg1
 10
-0.144000
 20
0.259000
  0
VERTEX
  8
gg1
 10
-0.134000
 20
0.269000
  0
VERTEX
  8
gg1
 10
-0.124000
 20
0.269000
  0
VERTEX
  8
gg1
 10
-0.114000
 20
0.259000
  0
VERTEX
  8
gg1
 10
-0.114000
 20
0.239000
  0
VERTEX
  8
gg1
 10
-0.124000
 20
0.229000
  0
VERTEX
  8
gg1
 10
-0.134000
 20
0.229000
  0
VERTEX
  8
gg1
 10
-0.144000
 20
0.239000
  0
VERTEX
  8
gg1
 10
-0.154000
 20
0.229000
  0
VERTEX
  8
gg1
 10
-0.164000
 20
0.229000
  0
SEQEND
  8
gg1
  0
POLYLINE
  8
gg1
 62
1
 40
0.000000
 41
0.000000
 66
  1
  0
VERTEX
  8
gg1
 10
-0.144000
 20
0.239000
  0
VERTEX
  8
gg1
 10
-0.144000
 20
0.259000
  0
SEQEND
  8
gg1
  0
POLYLINE
  8
gg1
 62
1
 40
0.000000
 41
0.000000
 66
  1
  0
VERTEX
  8
gg1
 10
-0.164000
 20
0.289000
  0
VERTEX
  8
gg1
 10
-0.174000
 20
0.299000
  0
VERTEX
  8
gg1
 10
-0.174000
 20
0.319000
  0
VERTEX
  8
gg1
 10
-0.164000
 20
0.329000
  0
VERTEX
  8
gg1
 10
-0.124000
 20
0.329000
  0
VERTEX
  8
gg1
 10
-0.114000
 20
0.319000
  0
VERTEX
  8
gg1
 10
-0.114000
 20
0.299000
  0
VERTEX
  8
gg1
 10
-0.124000
 20
0.289000
  0
VERTEX
  8
gg1
 10
-0.164000
 20
0.289000
  0
SEQEND
  8
gg1
  0
POLYLINE
  8
gg1
 62
1
 40
0.000000
 41
0.000000
 66
  1
  0
VERTEX
  8
gg1
 10
-0.164000
 20
0.349000
  0
VERTEX
  8
gg1
 10
-0.174000
 20
0.359000
  0
VERTEX
  8
gg1
 10
-0.174000
 20
0.379000
  0
VERTEX
  8
gg1
 10
-0.164000
 20
0.389000
  0
VERTEX
  8
gg1
 10
-0.124000
 20
0.389000
  0
VERTEX
  8
gg1
 10
-0.114000
 20
0.379000
  0
VERTEX
  8
gg1
 10
-0.114000
 20
0.359000
  0
VERTEX
  8
gg1
 10
-0.124000
 20
0.349000
  0
VERTEX
  8
gg1
 10
-0.164000
 20
0.349000
  0
SEQEND
  8
gg1
  0
POLYLINE
  8
gg1
 62
1
 40
0.000000
 41
0.000000
 66
  1
  0
VERTEX
  8
gg1
 10
-0.114000
 20
0.409000
  0
VERTEX
  8
gg1
 10
-0.154000
 20
0.409000
  0
VERTEX
  8
gg1
 10
-0.154000
 20
0.419000
  0
VERTEX
  8
gg1
 10
-0.144000
 20
0.429000
  0
VERTEX
  8
gg1
 10
-0.114000
 20
0.429000
  0
VERTEX
  8
gg1
 10
-0.144000
 20
0.429000
  0
VERTEX
  8
gg1
 10
-0.154000
 20
0.439000
  0
VERTEX
  8
gg1
 10
-0.144000
 20
0.449000
  0
VERTEX
  8
gg1
 10
-0.114000
 20
0.449000
  0
SEQEND
  8
gg1
  0
POLYLINE
  8
gg1
 62
1
 40
0.000000
 41
0.000000
 66
  1
  0
VERTEX
  8
gg1
 10
-0.114000
 20
0.469000
  0
VERTEX
  8
gg1
 10
-0.114000
 20
0.489000
  0
VERTEX
  8
gg1
 10
-0.114000
 20
0.479000
  0
VERTEX
  8
gg1
 10
-0.154000
 20
0.479000
  0
VERTEX
  8
gg1
 10
-0.154000
 20
0.469000
  0
SEQEND
  8
gg1
  0
POLYLINE
  8
gg1
 62
1
 40
0.000000
 41
0.000000
 66
  1
  0
VERTEX
  8
gg1
 10
-0.114000
 20
0.519000
  0
VERTEX
  8
gg1
 10
-0.114000
 20
0.539000
  0
VERTEX
  8
gg1
 10
-0.114000
 20
0.529000
  0
VERTEX
  8
gg1
 10
-0.174000
 20
0.529000
  0
VERTEX
  8
gg1
 10
-0.174000
 20
0.519000
  0
SEQEND
  8
gg1
  0
POLYLINE
  8
gg1
 62
1
 40
0.000000
 41
0.000000
 66
  1
  0
VERTEX
  8
gg1
 10
0.179000
 20
-0.366000
  0
VERTEX
  8
gg1
 10
0.219000
 20
-0.366000
  0
VERTEX
  8
gg1
 10
0.219000
 20
-0.376000
  0
VERTEX
  8
gg1
 10
0.179000
 20
-0.416000
  0
VERTEX
  8
gg1
 10
0.179000
 20
-0.426000
  0
SEQEND
  8
gg1
  0
POLYLINE
  8
gg1
 62
1
 40
0.000000
 41
0.000000
 66
  1
  0
VERTEX
  8
gg1
 10
0.239000
 20
-0.376000
  0
VERTEX
  8
gg1
 10
0.249000
 20
-0.366000
  0
VERTEX
  8
gg1
 10
0.269000
 20
-0.366000
  0
VERTEX
  8
gg1
 10
0.279000
 20
-0.376000
  0
VERTEX
  8
gg1
 10
0.279000
 20
-0.416000
  0
VERTEX
  8
gg1
 10
0.269000
 20
-0.426000
  0
VERTEX
  8
gg1
 10
0.249000
 20
-0.426000
  0
VERTEX
  8
gg1
 10
0.239000
 20
-0.416000
  0
VERTEX
  8
gg1
 10
0.239000
 20
-0.376000
  0
SEQEND
  8
gg1
  0
POLYLINE
  8
gg1
 62
1
 40
0.000000
 41
0.000000
 66
  1
  0
VERTEX
  8
gg1
 10
0.299000
 20
-0.376000
  0
VERTEX
  8
gg1
 10
0.309000
 20
-0.366000
  0
VERTEX
  8
gg1
 10
0.329000
 20
-0.366000
  0
VERTEX
  8
gg1
 10
0.339000
 20
-0.376000
  0
VERTEX
  8
gg1
 10
0.339000
 20
-0.416000
  0
VERTEX
  8
gg1
 10
0.329000
 20
-0.426000
  0
VERTEX
  8
gg1
 10
0.309000
 20
-0.426000
  0
VERTEX
  8
gg1
 10
0.299000
 20
-0.416000
  0
VERTEX
  8
gg1
 10
0.299000
 20
-0.376000
  0
SEQEND
  8
gg1
  0
POLYLINE
  8
gg1
 62
1
 40
0.000000
 41
0.000000
 66
  1
  0
VERTEX
  8
gg1
 10
0.359000
 20
-0.426000
  0
VERTEX
  8
gg1
 10
0.359000
 20
-0.386000
  0
VERTEX
  8
gg1
 10
0.369000
 20
-0.386000
  0
VERTEX
  8
gg1
 10
0.379000
 20
-0.396000
  0
VERTEX
  8
gg1
 10
0.379000
 20
-0.426000
  0
VERTEX
  8
gg1
 10
0.379000
 20
-0.396000
  0
VERTEX
  8
gg1
 10
0.389000
 20
-0.386000
  0
VERTEX
  8
gg1
 10
0.399000
 20
-0.396000
  0
VERTEX
  8
gg1
 10
0.399000
 20
-0.426000
  0
SEQEND
  8
gg1
  0
POLYLINE
  8
gg1
 62
1
 40
0.000000
 41
0.000000
 66
  1
  0
VERTEX
  8
gg1
 10
0.419000
 20
-0.426000
  0
VERTEX
  8
gg1
 10
0.439000
 20
-0.426000
  0
VERTEX
  8
gg1
 10
0.429000
 20
-0.426000
  0
VERTEX
  8
gg1
 10
0.429000
 20
-0.386000
  0
VERTEX
  8
gg1
 10
0.419000
 20
-0.386000
  0
SEQEND
  8
gg1
  0
POLYLINE
  8
gg1
 62
1
 40
0.000000
 41
0.000000
 66
  1
  0
VERTEX
  8
gg1
 10
0.469000
 20
-0.426000
  0
VERTEX
  8
gg1
 10
0.489000
 20
-0.426000
  0
VERTEX
  8
gg1
 10
0.479000
 20
-0.426000
  0
VERTEX
  8
gg1
 10
0.479000
 20
-0.366000
  0
VERTEX
  8
gg1
 10
0.469000
 20
-0.366000
  0
SEQEND
  8
gg1
  0
ENDSEC
  0
EOF
